<?xml version="1.0" encoding="UTF-8"?>
<svg width="158px" height="43px" viewBox="0 0 158 43" version="1.1" xmlns="http://www.w3.org/2000/svg" xmlns:xlink="http://www.w3.org/1999/xlink">
    <!-- Generator: sketchtool 50.2 (55047) - http://www.bohemiancoding.com/sketch -->
    <title>67E3F47B-9AE9-4389-A22B-39EB5A2E6783</title>
    <desc>Created with sketchtool.</desc>
    <defs>
        <polygon id="path-1" points="0.0455769231 0.159929825 157.509288 0.159929825 157.509288 42.6001754 0.0455769231 42.6001754"></polygon>
    </defs>
    <g id="Symbols" stroke="none" stroke-width="1" fill="none" fill-rule="evenodd">
        <g id="Logo/Delta">
            <g id="Group">
                <g id="Group-3">
                    <mask id="mask-2" fill="white">
                        <use xlink:href="#path-1"></use>
                    </mask>
                    <g id="Clip-2"></g>
                    <path d="M157.509288,34.1103158 C157.509288,38.7988246 153.585115,42.6001754 148.741048,42.6001754 L8.76520192,42.6001754 C3.92417308,42.6001754 0,38.7988246 0,34.1103158 L0,8.6482807 C0,3.95826316 3.92417308,0.159929825 8.76520192,0.159929825 L148.741048,0.159929825 C153.585115,0.159929825 157.509288,3.95826316 157.509288,8.6482807 L157.509288,34.1103158" id="Fill-1" fill="#C11E43" mask="url(#mask-2)"></path>
                </g>
                <path d="M36,20.998507 C36,29.2830696 29.2840612,36 20.9988802,36 C12.7159388,36 6,29.2830696 6,20.998507 C6,12.7154374 12.7159388,6 20.9988802,6 C29.2840612,6 36,12.7154374 36,20.998507" id="Fill-4" fill="#1A1919"></path>
                <path d="M47.5084337,8.05011669 L44.0038335,8.09360029 L44,8.33533964 L44,31.9078737 L46.7700986,31.9498833 C46.771632,31.9498833 50.50931,32 50.50931,32 C59.5824754,32 65,27.4297998 65,19.7759489 C65,11.9629038 60.5170865,8 51.6769989,8 L47.5084337,8.05011669 Z M51.1157722,10.7365189 C57.9141292,10.7365189 61.3612267,13.852598 61.3612267,19.999263 C61.3612267,25.9152438 57.6404162,29.1728289 50.8834611,29.1728289 C49.8714129,29.1728289 48.4085433,29.1315563 47.5007667,29.0578553 C47.5007667,28.9052942 47.5007667,11.0084756 47.5007667,10.8559145 C48.6370208,10.7807395 49.9802848,10.7365189 51.1157722,10.7365189 Z" id="Fill-5" fill="#FFFFFE"></path>
                <path d="M85.9107973,8 L72,8 L72,32 L86,32 L86,29.1967822 C86,29.1967822 75.8437518,29.1967822 75.6677573,29.1967822 C75.6677573,29.0356436 75.6677573,21.1324257 75.6677573,20.9705446 C75.8437518,20.9705446 85.5580047,20.9705446 85.5580047,20.9705446 L85.5580047,18.2594059 C85.5580047,18.2594059 75.8437518,18.2594059 75.6677573,18.2594059 C75.6677573,18.0982673 75.6677573,10.9175743 75.6677573,10.7556931 C75.8437518,10.7556931 86,10.7556931 86,10.7556931 L86,8 L85.9107973,8" id="Fill-6" fill="#FFFFFE"></path>
                <path d="M96.4736811,8 L93,8 L93,32 L106,32 L106,29.1514851 C106,29.1514851 96.7293165,29.1514851 96.5594125,29.1514851 C96.5594125,28.9873762 96.5594125,8 96.5594125,8 L96.4736811,8" id="Fill-7" fill="#FFFFFE"></path>
                <path d="M125.910924,8 L107,8 L107,10.8470297 C107,10.8470297 114.503672,10.8470297 114.676306,10.8470297 C114.676306,11.0118812 114.676306,32 114.676306,32 L118.275609,32 C118.275609,32 118.275609,11.0118812 118.275609,10.8470297 C118.448243,10.8470297 126,10.8470297 126,10.8470297 L126,8 L125.910924,8" id="Fill-8" fill="#FFFFFE"></path>
                <path d="M138.296627,8 L134.785881,8 L125,32 L128.541024,32 C128.541024,32 130.711206,26.6341584 130.750568,26.5294554 C130.864868,26.5294554 141.902748,26.5294554 142.016291,26.5294554 C142.057923,26.6341584 144.182689,32 144.182689,32 L148,32 L138.354155,8 L138.296627,8 Z M136.414843,11.9735149 C136.807701,13.1438119 137.258845,14.404703 137.666842,15.4762376 C137.666842,15.4762376 140.559914,22.8381188 140.944446,23.8190594 C140.708277,23.8190594 132.065394,23.8190594 131.826954,23.8190594 C131.916274,23.5970297 135.146191,15.5252475 135.146191,15.5252475 C135.604904,14.385396 136.028797,13.1905941 136.414843,11.9735149 Z" id="Fill-9" fill="#FFFFFE"></path>
                <path d="M151,33 L150.522157,32.2739917 C150.481536,32.2081595 150.42836,32.1339824 150.384047,32.067223 C150.67356,32.0486787 150.897341,31.8567455 150.897341,31.5016226 C150.897341,31.1307371 150.67356,31 150.375185,31 C150.206056,31 150.101182,31.0037089 150,31.0111266 L150,33 L150.181684,33 L150.181684,32.0811312 L150.189069,32.0811312 L150.765879,33 L151,33 Z M150.709749,31.5350023 C150.709749,31.7556792 150.570162,31.9133055 150.324963,31.9133055 C150.254062,31.9133055 150.20901,31.9095967 150.181684,31.9058878 L150.181684,31.1900788 C150.22969,31.1835883 150.27548,31.1798795 150.334564,31.1798795 C150.578287,31.1798795 150.709749,31.273528 150.709749,31.5350023 Z" id="Fill-10" fill="#FFFFFE"></path>
                <path d="M149.163271,31.5027097 C149.163271,30.7649032 149.762961,30.1649032 150.500387,30.1649032 C151.237039,30.1649032 151.835182,30.7649032 151.835182,31.5027097 C151.835182,32.2374194 151.237039,32.8381935 150.500387,32.8381935 C149.762961,32.8381935 149.163271,32.2374194 149.163271,31.5027097 Z M149,31.5027097 C149,32.3287742 149.672427,33 150.500387,33 C151.326025,33 152,32.3287742 152,31.5027097 C152,30.6743226 151.326025,30 150.500387,30 C149.672427,30 149,30.6743226 149,31.5027097 Z" id="Fill-11" fill="#FFFFFE"></path>
                <path d="M13.0320165,30 C13.4038969,30 27,29.9942829 27,29.9942829 C27,29.9942829 15.2245615,23.729789 14.9069136,23.5568472 C14.5768697,23.3781883 14.2212591,23.2216832 13.8323342,23.1237781 C11.7761453,22.616387 9.66804822,23.7147816 9.12804686,25.5792654 C8.586496,27.4451784 9.81215188,29.3675477 11.8714397,29.8756534 C12.2588151,29.9728439 12.6570371,29.9971415 13.0320165,30" id="Fill-12" fill="#FFFFFE"></path>
                <path d="M32.4459453,25.0952732 C32.2758638,24.7745094 26,13 26,13 C26,13 26.005717,26.5952699 26.0028585,26.9640708 C26,27.3483675 26.0264412,27.7388625 26.1243453,28.1262583 C26.6310166,30.1864295 28.5562246,31.4121499 30.41926,30.8728949 C32.2851539,30.3297659 33.3849666,28.2246569 32.8754367,26.1652605 C32.7796766,25.7778647 32.6188853,25.4206857 32.4459453,25.0952732" id="Fill-13" fill="#FFFFFE"></path>
                <path d="M18.894152,10.0576366 C18.7105324,10.3727345 12,22 12,22 C12,22 23.6238877,15.2842848 23.9406315,15.1045566 C24.2696167,14.9179452 24.5909511,14.7015066 24.8717361,14.4177655 C26.3567598,12.9309929 26.3797123,10.5425202 24.917641,9.08175084 C23.4563348,7.62251104 21.0669843,7.64163106 19.5804304,9.12687408 C19.2996454,9.40908555 19.0800669,9.73642027 18.894152,10.0576366" id="Fill-14" fill="#FFFFFE"></path>
            </g>
        </g>
    </g>
</svg>